PathFileType	4	(X/Y/Z)	C:\Users\WrightLab\Desktop\Jo\P2_Trial40.trc
DataRate	CameraRate	NumFrames	NumMarkers	Units	OrigDataRate	OrigDataStartFrame	OrigNumFrames
100.00	100.00	       12	19	mm	100.00	300	       479
Frame#	Time	Headset_Front			Headset_Back			Headset_Left			Headset_Right			Left_Shoulder			Right_Shoulder			Sternum			C7			Left Elbow			Right Elbow			Left Wrist			Right Wrist			Left ASIS			Right ASIS			S2			Left Knee			Right Knee			Left Ankle			Right Ankle			
		X1	Y1	Z1	X2	Y2	Z2	X3	Y3	Z3	X4	Y4	Z4	X5	Y5	Z5	X6	Y6	Z6	X7	Y7	Z7	X8	Y8	Z8	X9	Y9	Z9	X10	Y10	Z10	X11	Y11	Z11	X12	Y12	Z12	X13	Y13	Z13	X14	Y14	Z14	X15	Y15	Z15	X16	Y16	Z16	X17	Y17	Z17	X18	Y18	Z18	X19	Y19	Z19	

300	2.990	264.86572	1508.63428	1528.60107	292.67249	1713.34937	1300.09009	393.77768	1616.87073	1401.28772	167.90083	1578.81653	1434.53040	442.30655	1471.52368	1262.96912	124.02999	1438.31433	1346.56335	306.80237	1344.92261	1373.43225	239.96579	1448.44263	1201.95007	569.06348	1121.45874	1240.88965	59.86627	1122.95117	1414.20166	604.31738	880.65021	1244.94177	144.21581	939.26697	1569.47632	388.09222	1051.36169	1403.12183	258.83261	1019.69946	1429.07239	302.56516	961.60785	1158.55664	493.35843	494.17563	1377.20471	135.79408	545.83057	1240.49695	586.18304	220.29507	1558.00732	136.73782	160.06148	1058.07813	
301	3.000	265.65689	1511.15222	1538.73657	296.36053	1714.77271	1310.11707	395.54102	1618.85364	1412.96228	169.90759	1580.37622	1442.79700	445.92236	1472.68250	1275.75781	126.13595	1441.73035	1354.85767	309.71729	1346.60339	1383.08655	245.15378	1450.65833	1210.02454	572.38928	1122.90845	1251.15125	61.12460	1124.84558	1418.07861	605.80951	880.88354	1253.21167	142.03340	937.97089	1570.90198	388.55649	1053.74475	1414.20410	258.33246	1022.47534	1438.49695	307.54483	964.11761	1168.27344	498.89572	498.11118	1387.37000	145.07004	547.40906	1252.21887	581.51117	223.43143	1572.18921	142.21498	170.46732	1061.11157	
302	3.010	265.58405	1513.34851	1548.69421				398.59247	1620.96838	1424.82922	171.42026	1582.70532	1451.94629	450.07312	1474.59802	1288.22290	129.37483	1442.45532	1357.94543	312.09528	1348.49634	1394.33618	250.50816	1453.29077	1219.57996	576.18396	1124.67371	1262.85083	62.87598	1126.19629	1419.34326	608.15570	883.11774	1263.07959	139.57298	935.98328	1571.96167	387.58408	1056.19482	1424.98193	258.10840	1024.88049	1446.46472	313.61752	966.40936	1177.60449	506.93393	502.34061	1396.40527	154.29230	548.74432	1264.46143	573.69507	225.24069	1586.25403	150.91779	178.96548	1059.93347	
303	3.020	265.92514	1515.78333	1559.29321				400.51886	1623.01392	1435.99487	173.26111	1585.26123	1460.37537	454.10663	1476.37817	1301.05823	132.28575	1445.11768	1364.77307	313.94833	1350.76514	1404.22742	255.77171	1455.25879	1228.59741	579.45978	1126.36194	1274.77942	63.92914	1127.39172	1423.09619	609.86511	884.67273	1273.48364	137.15395	934.40070	1572.52026	387.17270	1059.32886	1435.86353	257.62360	1027.70227	1455.06787	319.06805	968.94714	1186.59070	513.23547	504.99435	1406.24500	163.39549	550.19196	1276.95105	563.75562	225.94215	1597.39258	159.61568	188.52315	1065.96118	
304	3.030	266.14163	1518.11169	1569.90039				402.52979	1624.99609	1447.15771	174.82469	1587.89319	1469.05322	457.30853	1479.00317	1314.29895	134.74260	1447.28564	1371.79993	315.77081	1353.26990	1414.45691	261.03366	1457.65051	1238.42297	582.88031	1128.66504	1287.27930	65.31546	1128.98914	1424.69202	611.02338	885.57550	1283.30994	134.28596	932.64172	1571.90674	387.21881	1062.13550	1446.05054	257.63901	1029.85840	1462.69519	324.64722	971.34637	1196.08789	518.19543	506.53656	1416.47156	172.31517	551.81128	1289.96460	553.77130	224.42470	1604.29517	168.72963	198.43228	1075.76074	
305	3.040	266.05707	1520.20044	1578.43811				404.11615	1626.94922	1458.79980	176.10832	1590.10071	1477.49182	461.12534	1481.23767	1327.45825	136.70239	1449.42212	1378.69397	316.62238	1354.95740	1424.46509	265.96698	1459.66772	1247.39587	586.04193	1130.70203	1299.84839	66.80374	1130.33313	1426.45959	613.11169	888.25922	1295.94165	130.88168	931.07373	1572.14160	387.53375	1064.30811	1456.13159	257.36710	1032.39722	1469.89783	329.86078	973.74591	1204.38098	523.22229	507.99963	1427.31396	181.40755	553.13348	1303.20276	545.05627	221.83159	1608.06946	178.08067	210.09654	1088.75635	
306	3.050	266.07657	1522.46375	1589.07178				405.07877	1628.01123	1469.23169	176.83464	1591.98193	1486.41797	464.67807	1483.18982	1339.27075	139.23293	1451.50586	1383.58777	318.12424	1357.23926	1433.33154	272.11575	1461.47815	1256.16809	588.72302	1132.59668	1313.50818	68.01584	1131.19592	1428.97375	614.44757	889.30621	1306.23181	127.24471	928.89050	1572.33142	387.81885	1066.75623	1464.94397	257.40720	1034.37024	1477.70728	334.00104	975.87067	1213.31555	529.55963	509.35886	1438.32654	190.12643	554.87305	1316.57886	537.67914	218.94592	1609.78162	187.69284	218.29564	1100.98669	
307	3.060	265.38303	1523.69067	1597.82959				406.13501	1630.04468	1480.29053	177.84233	1593.60046	1494.16431	467.12006	1484.89233	1352.24194	140.80493	1453.69702	1390.25403	318.56976	1359.44385	1443.58325	275.32858	1464.36719	1265.49658	591.80255	1134.34985	1327.62585	69.41933	1133.06384	1430.40271	616.33984	891.50464	1319.20825	123.23338	926.13025	1571.31750	388.13385	1068.68506	1475.30872	257.54990	1036.86719	1485.41785	337.39520	978.11108	1222.08704	534.75262	508.25101	1449.32068	198.92657	556.54388	1330.41064	529.38959	212.61586	1609.90149				
308	3.070	265.46896	1525.75427	1607.58325				407.13007	1631.93152	1490.97498	178.78357	1595.30298	1502.02380	469.63245	1487.18530	1364.90149	142.51915	1456.39746	1397.13940	319.43094	1361.11865	1453.02515	281.74936	1466.44653	1274.04456	594.80170	1136.56372	1341.67200	71.10052	1134.55017	1432.58716	618.22150	892.74988	1329.38062	118.98399	923.72510	1569.92297	388.09500	1069.74780	1485.09705	259.15540	1039.71130	1494.79407	340.94531	979.68933	1230.67834	540.37598	509.86816	1459.58081	207.52878	558.63855	1344.46936	523.55560	206.81671	1609.30237				
309	3.080	263.96164	1527.04688	1616.09631				408.16025	1633.97424	1502.28455	178.98329	1597.58154	1510.77429	472.88031	1489.97705	1378.53772	143.66711	1458.57935	1403.30286	319.39029	1363.32642	1462.15125	284.96118	1468.63599	1282.92834	597.11780	1138.60181	1355.24963	72.30600	1136.32849	1435.14526	619.94696	894.97571	1343.57678	115.24141	921.22253	1568.64697	388.96048	1070.80762	1493.70422	257.21204	1041.08777	1501.49805	344.47464	981.79523	1238.82617	545.57855	509.65399	1470.37463	215.95998	560.81293	1358.72729	517.70160	200.55939	1608.48303				
310	3.090	263.67352	1528.24255	1624.52905				408.40485	1635.62952	1512.44543	178.76939	1600.02820	1519.07446	474.33597	1491.22180	1391.18079	144.88890	1460.81116	1409.06787	319.71121	1364.62598	1471.28796	290.36484	1471.24670	1291.65857	599.59808	1140.55530	1369.75500	74.41518	1138.39233	1436.62732	622.36169	896.37494	1355.57813	110.82364	919.01794	1566.60034	389.69839	1072.02686	1503.92041	257.26447	1040.87573	1502.74182	347.66412	983.47845	1247.59534	547.19141	510.00256	1478.92700	223.71201	563.92273	1373.86255	511.49936	193.52512	1607.65625				
311	3.100	262.04721	1530.44263	1634.39514				408.81409	1637.27026	1523.40894	179.32224	1601.23242	1526.38220	476.64832	1492.96814	1403.23462	146.30060	1462.85779	1414.86365	319.85785	1366.42175	1479.80444	293.46417	1473.43762	1300.17615	602.04724	1142.27551	1384.58704	76.01611	1139.40735	1437.49707	623.96002	898.74255	1370.17114	106.18810	916.76257	1564.86609	390.06180	1073.19055	1512.19556	257.28674	1044.93494	1519.17175	350.66193	985.48065	1255.13696	550.89966	511.57556	1488.23230	229.65944	566.82965	1388.80811	507.09695	185.86440	1606.15491				
